<svg version="1.1" xmlns="http://www.w3.org/2000/svg" xmlns:xlink="http://www.w3.org/1999/xlink" width="800" height="800" style="width: 800px; height: 800px;"><defs><clipPath id="puqbkUPJlDCm"><path fill="none" stroke="none" d=" M 0 0 L 770 0 L 770 800 L 0 800 L 0 0 Z"/></clipPath><clipPath id="TObQTHDIhFJQ"><path fill="none" stroke="none" d=" M 0 0 L 770 0 L 770 800 L 0 800 L 0 0 Z"/></clipPath></defs><g><g transform="scale(1,1) translate(0.5,0.5)"><rect fill="#FFFFFF" stroke="none" x="0" y="0" width="800" height="800"/><rect fill="#ffffff" stroke="none" x="0" y="0" width="800" height="800"/><rect fill="#FFFFFF" stroke="none" x="0" y="0" width="770" height="800"/><rect fill="#f0e1d2" stroke="none" x="0" y="0" width="770" height="800"/><g><rect fill="none" stroke="black" x="0" y="0" width="770" height="799" stroke-miterlimit="10"/></g><g clip-path="url(#puqbkUPJlDCm)"><g><g fill="#bdbdbd" stroke="#bdbdbd" stroke-miterlimit="10"><path fill="" stroke="" d=""/><g transform="translate(385,400) rotate(-77.44186046511629,0,0)"><path fill="none" stroke="none"/><path fill="" stroke="" d=" M 265.83333333333326 0 A 265.83333333333326 265.83333333333326 0 0 0 263.00044517583643 -38.70564491676798"/><g transform="rotate(-8.372093276085728,0,0) rotate(85.813953741202,0,0) translate(-385,-400) translate(385,400) rotate(-69.06976744186046,0,0)" fill="" stroke=""><path fill="none" stroke="none"/><path fill="" stroke="" d=" M 265.83333333333326 0 A 265.83333333333326 265.83333333333326 0 0 0 263.00044517583643 -38.70564491676798"/><g transform="rotate(-8.372093276085728,0,0) rotate(77.4418607179462,0,0) translate(-385,-400) translate(385,400) rotate(-60.697674418604656,0,0)" fill="" stroke=""><path fill="none" stroke="none"/><path fill="" stroke="" d=" M 265.83333333333326 0 A 265.83333333333326 265.83333333333326 0 0 0 263.00044517583643 -38.70564491676798"/><g transform="rotate(-8.372093276085728,0,0) rotate(69.06976769469038,0,0) translate(-385,-400) translate(385,400) rotate(-52.32558139534884,0,0)" fill="" stroke=""><path fill="none" stroke="none"/><path fill="" stroke="" d=" M 265.83333333333326 0 A 265.83333333333326 265.83333333333326 0 0 0 263.00044517583643 -38.70564491676798"/><g transform="rotate(-8.372093276085728,0,0) rotate(60.69767467143457,0,0) translate(-385,-400) translate(385,400) rotate(-43.95348837209302,0,0)" fill="" stroke=""><path fill="none" stroke="none"/><path fill="" stroke="" d=" M 265.83333333333326 0 A 265.83333333333326 265.83333333333326 0 0 0 263.00044517583643 -38.70564491676798"/><g transform="rotate(-8.372093276085728,0,0) rotate(52.32558164817875,0,0) translate(-385,-400) translate(385,400) rotate(-35.581395348837205,0,0)" fill="" stroke=""><path fill="none" stroke="none"/><path fill="" stroke="" d=" M 265.83333333333326 0 A 265.83333333333326 265.83333333333326 0 0 0 263.00044517583643 -38.70564491676798"/><g transform="rotate(-8.372093276085728,0,0) rotate(43.95348862492294,0,0) translate(-385,-400) translate(385,400) rotate(-27.2093023255814,0,0)" fill="" stroke=""><path fill="none" stroke="none"/><path fill="" stroke="" d=" M 265.83333333333326 0 A 265.83333333333326 265.83333333333326 0 0 0 263.00044517583643 -38.70564491676798"/><g transform="rotate(-8.372093276085728,0,0) rotate(35.581395601667126,0,0) translate(-385,-400) translate(385,400) rotate(-18.837209302325583,0,0)" fill="" stroke=""><path fill="none" stroke="none"/><path fill="" stroke="" d=" M 265.83333333333326 0 A 265.83333333333326 265.83333333333326 0 0 0 263.00044517583643 -38.70564491676798"/><g transform="rotate(-8.372093276085728,0,0) rotate(27.20930257841131,0,0) translate(-385,-400) translate(385,400) rotate(-10.465116279069768,0,0)" fill="" stroke=""><path fill="none" stroke="none"/><path fill="" stroke="" d=" M 265.83333333333326 0 A 265.83333333333326 265.83333333333326 0 0 0 263.00044517583643 -38.70564491676798"/><g transform="rotate(-8.372093276085728,0,0) rotate(18.837209555155493,0,0) translate(-385,-400) translate(385,400) rotate(-2.0930232558139523,0,0)" fill="" stroke=""><path fill="none" stroke="none"/><path fill="" stroke="" d=" M 265.83333333333326 0 A 265.83333333333326 265.83333333333326 0 0 0 263.00044517583643 -38.70564491676798"/><g transform="rotate(-8.372093276085728,0,0) rotate(10.465116531899682,0,0) translate(-385,-400) translate(385,400) rotate(6.279069767441864,0,0)" fill="" stroke=""><path fill="none" stroke="none"/><path fill="" stroke="" d=" M 265.83333333333326 0 A 265.83333333333326 265.83333333333326 0 0 0 263.00044517583643 -38.70564491676798"/><g transform="rotate(-8.372093276085728,0,0) rotate(2.093023508643865,0,0) translate(-385,-400) translate(385,400) rotate(14.651162790697681,0,0)" fill="" stroke=""><path fill="none" stroke="none"/><path fill="" stroke="" d=" M 265.83333333333326 0 A 265.83333333333326 265.83333333333326 0 0 0 263.00044517583643 -38.70564491676798"/><g transform="rotate(-8.372093276085728,0,0) rotate(-6.279069514611953,0,0) translate(-385,-400) translate(385,400) rotate(23.023255813953487,0,0)" fill="" stroke=""><path fill="none" stroke="none"/><path fill="" stroke="" d=" M 265.83333333333326 0 A 265.83333333333326 265.83333333333326 0 0 0 263.00044517583643 -38.70564491676798"/><g transform="rotate(-8.372093276085728,0,0) rotate(-14.651162537867757,0,0) translate(-385,-400) translate(385,400) rotate(31.3953488372093,0,0)" fill="" stroke=""><path fill="none" stroke="none"/><path fill="" stroke="" d=" M 265.83333333333326 0 A 265.83333333333326 265.83333333333326 0 0 0 263.00044517583643 -38.70564491676798"/><g transform="rotate(-8.372093276085728,0,0) rotate(-23.023255561123573,0,0) translate(-385,-400) translate(385,400) rotate(39.76744186046512,0,0)" fill="" stroke=""><path fill="none" stroke="none"/><path fill="" stroke="" d=" M 265.83333333333326 0 A 265.83333333333326 265.83333333333326 0 0 0 263.00044517583643 -38.70564491676798"/><g transform="rotate(-8.372093276085728,0,0) rotate(-31.395348584379388,0,0) translate(-385,-400) translate(385,400) rotate(48.13953488372095,0,0)" fill="" stroke=""><path fill="none" stroke="none"/><path fill="" stroke="" d=" M 265.83333333333326 0 A 265.83333333333326 265.83333333333326 0 0 0 263.00044517583643 -38.70564491676798"/><g transform="rotate(-8.372093276085728,0,0) rotate(-39.76744160763522,0,0) translate(-385,-400) translate(385,400) rotate(56.51162790697675,0,0)" fill="" stroke=""><path fill="none" stroke="none"/><path fill="" stroke="" d=" M 265.83333333333326 0 A 265.83333333333326 265.83333333333326 0 0 0 263.00044517583643 -38.70564491676798"/><g transform="rotate(-8.372093276085728,0,0) rotate(-48.13953463089102,0,0) translate(-385,-400) translate(385,400) rotate(64.88372093023256,0,0)" fill="" stroke=""><path fill="none" stroke="none"/><path fill="" stroke="" d=" M 265.83333333333326 0 A 265.83333333333326 265.83333333333326 0 0 0 263.00044517583643 -38.70564491676798"/><g transform="rotate(-8.372093276085728,0,0) rotate(-56.51162765414682,0,0) translate(-385,-400) translate(385,400) rotate(73.25581395348838,0,0)" fill="" stroke=""><path fill="none" stroke="none"/><path fill="" stroke="" d=" M 265.83333333333326 0 A 265.83333333333326 265.83333333333326 0 0 0 263.00044517583643 -38.70564491676798"/><g transform="rotate(-8.372093276085728,0,0) rotate(-64.88372067740265,0,0) translate(-385,-400) translate(385,400) rotate(81.62790697674419,0,0)" fill="" stroke=""><path fill="none" stroke="none"/><path fill="" stroke="" d=" M 265.83333333333326 0 A 265.83333333333326 265.83333333333326 0 0 0 263.00044517583643 -38.70564491676798"/><g transform="rotate(-8.372093276085728,0,0) rotate(-73.25581370065845,0,0) translate(-385,-400) translate(385,400) rotate(90.00000000000001,0,0)" fill="" stroke=""><path fill="none" stroke="none"/><path fill="" stroke="" d=" M 265.83333333333326 0 A 265.83333333333326 265.83333333333326 0 0 0 263.00044517583643 -38.70564491676798"/><g transform="rotate(-8.372093276085728,0,0) rotate(-81.6279067239143,0,0) translate(-385,-400) translate(385,400) rotate(98.37209302325581,0,0)" fill="" stroke=""><path fill="none" stroke="none"/><path fill="" stroke="" d=" M 265.83333333333326 0 A 265.83333333333326 265.83333333333326 0 0 0 263.00044517583643 -38.70564491676798"/><g transform="rotate(-8.372093276085728,0,0) rotate(-89.99999974717008,0,0) translate(-385,-400) translate(385,400) rotate(106.74418604651164,0,0)" fill="" stroke=""><path fill="none" stroke="none"/><path fill="" stroke="" d=" M 265.83333333333326 0 A 265.83333333333326 265.83333333333326 0 0 0 263.00044517583643 -38.70564491676798"/><g transform="rotate(-8.372093276085728,0,0) rotate(-98.37209277042591,0,0) translate(-385,-400) translate(385,400) rotate(115.11627906976743,0,0)" fill="" stroke=""><path fill="none" stroke="none"/><path fill="" stroke="" d=" M 265.83333333333326 0 A 265.83333333333326 265.83333333333326 0 0 0 263.00044517583643 -38.70564491676798"/><g transform="rotate(-8.372093276085728,0,0) rotate(-106.74418579368171,0,0) translate(-385,-400) translate(385,400) rotate(123.48837209302324,0,0)" fill="" stroke=""><path fill="none" stroke="none"/><path fill="" stroke="" d=" M 265.83333333333326 0 A 265.83333333333326 265.83333333333326 0 0 0 263.00044517583643 -38.70564491676798"/><g transform="rotate(-8.372093276085728,0,0) rotate(-115.11627881693752,0,0) translate(-385,-400) translate(385,400) rotate(131.86046511627904,0,0)" fill="" stroke=""><path fill="none" stroke="none"/><path fill="" stroke="" d=" M 265.83333333333326 0 A 265.83333333333326 265.83333333333326 0 0 0 263.00044517583643 -38.70564491676798"/><g transform="rotate(-8.372093276085728,0,0) rotate(-123.48837184019332,0,0) translate(-385,-400) translate(385,400) rotate(140.23255813953486,0,0)" fill="" stroke=""><path fill="none" stroke="none"/><path fill="" stroke="" d=" M 265.83333333333326 0 A 265.83333333333326 265.83333333333326 0 0 0 263.00044517583643 -38.70564491676798"/><g transform="rotate(-8.372093276085728,0,0) rotate(-131.86046486344915,0,0) translate(-385,-400) translate(385,400) rotate(148.6046511627907,0,0)" fill="" stroke=""><path fill="none" stroke="none"/><path fill="" stroke="" d=" M 265.83333333333326 0 A 265.83333333333326 265.83333333333326 0 0 0 263.00044517583643 -38.70564491676798"/><g transform="rotate(-8.372093276085728,0,0) rotate(-140.23255788670497,0,0) translate(-385,-400) translate(385,400) rotate(156.97674418604652,0,0)" fill="" stroke=""><path fill="none" stroke="none"/><path fill="" stroke="" d=" M 265.83333333333326 0 A 265.83333333333326 265.83333333333326 0 0 0 263.00044517583643 -38.70564491676798"/><g transform="rotate(-8.372093276085728,0,0) rotate(-148.60465090996078,0,0) translate(-385,-400) translate(385,400) rotate(165.3488372093023,0,0)" fill="" stroke=""><path fill="none" stroke="none"/><path fill="" stroke="" d=" M 265.83333333333326 0 A 265.83333333333326 265.83333333333326 0 0 0 263.00044517583643 -38.70564491676798"/><g transform="rotate(-8.372093276085728,0,0) rotate(-156.97674393321657,0,0) translate(-385,-400) translate(385,400) rotate(173.72093023255817,0,0)" fill="" stroke=""><path fill="none" stroke="none"/><path fill="" stroke="" d=" M 265.83333333333326 0 A 265.83333333333326 265.83333333333326 0 0 0 263.00044517583643 -38.70564491676798"/><g transform="rotate(-8.372093276085728,0,0) rotate(-165.34883695647244,0,0) translate(-385,-400) translate(385,400) rotate(182.09302325581396,0,0)" fill="" stroke=""><path fill="none" stroke="none"/><path fill="" stroke="" d=" M 265.83333333333326 0 A 265.83333333333326 265.83333333333326 0 0 0 263.00044517583643 -38.70564491676798"/><g transform="rotate(-8.372093276085728,0,0) rotate(-173.72092997972823,0,0) translate(-385,-400) translate(385,400) rotate(190.46511627906975,0,0)" fill="" stroke=""><path fill="none" stroke="none"/><path fill="" stroke="" d=" M 265.83333333333326 0 A 265.83333333333326 265.83333333333326 0 0 0 263.00044517583643 -38.70564491676798"/><g transform="rotate(-8.372093276085728,0,0) rotate(-182.09302300298404,0,0) translate(-385,-400) translate(385,400) rotate(198.8372093023256,0,0)" fill="" stroke=""><path fill="none" stroke="none"/><path fill="" stroke="" d=" M 265.83333333333326 0 A 265.83333333333326 265.83333333333326 0 0 0 263.00044517583643 -38.70564491676798"/><g transform="rotate(-8.372093276085728,0,0) rotate(-190.46511602623985,0,0) translate(-385,-400) translate(385,400) rotate(207.20930232558138,0,0)" fill="" stroke=""><path fill="none" stroke="none"/><path fill="" stroke="" d=" M 265.83333333333326 0 A 265.83333333333326 265.83333333333326 0 0 0 263.00044517583643 -38.70564491676798"/><g transform="rotate(-8.372093276085728,0,0) rotate(-198.83720904949564,0,0) translate(-385,-400) translate(385,400) rotate(215.58139534883725,0,0)" fill="" stroke=""><path fill="none" stroke="none"/><path fill="" stroke="" d=" M 265.83333333333326 0 A 265.83333333333326 265.83333333333326 0 0 0 263.00044517583643 -38.70564491676798"/><g transform="rotate(-8.372093276085728,0,0) rotate(-207.2093020727515,0,0) translate(-385,-400) translate(385,400) rotate(223.95348837209303,0,0)" fill="" stroke=""><path fill="none" stroke="none"/><path fill="" stroke="" d=" M 265.83333333333326 0 A 265.83333333333326 265.83333333333326 0 0 0 263.00044517583643 -38.70564491676798"/><g transform="rotate(-8.372093276085728,0,0) rotate(-215.5813950960073,0,0) translate(-385,-400) translate(385,400) rotate(232.32558139534888,0,0)" fill="" stroke=""><path fill="none" stroke="none"/><path fill="" stroke="" d=" M 265.83333333333326 0 A 265.83333333333326 265.83333333333326 0 0 0 263.00044517583643 -38.70564491676798"/><g transform="rotate(-8.372093276085728,0,0) rotate(-223.95348811926314,0,0) translate(-385,-400) translate(385,400) rotate(240.69767441860463,0,0)" fill="" stroke=""><path fill="none" stroke="none"/><path fill="" stroke="" d=" M 265.83333333333326 0 A 265.83333333333326 265.83333333333326 0 0 0 263.00044517583643 -38.70564491676798"/><g transform="rotate(-8.372093276085728,0,0) rotate(-232.3255811425189,0,0) translate(-385,-400) translate(385,400) rotate(249.06976744186045,0,0)" fill="" stroke=""><path fill="none" stroke="none"/><path fill="" stroke="" d=" M 265.83333333333326 0 A 265.83333333333326 265.83333333333326 0 0 0 263.00044517583643 -38.70564491676798"/><g transform="rotate(-8.372093276085728,0,0) rotate(-240.6976741657747,0,0) translate(-385,-400) translate(385,400) rotate(257.4418604651163,0,0)" fill="" stroke=""><path fill="none" stroke="none"/><path fill="" stroke="" d=" M 265.83333333333326 0 A 265.83333333333326 265.83333333333326 0 0 0 263.00044517583643 -38.70564491676798"/><g transform="rotate(-8.372093276085728,0,0) rotate(-249.06976718903059,0,0) translate(-385,-400) translate(385,400) rotate(265.8139534883721,0,0)" fill="" stroke=""><path fill="none" stroke="none"/><path fill="" stroke="" d=" M 265.83333333333326 0 A 265.83333333333326 265.83333333333326 0 0 0 263.00044517583643 -38.70564491676798"/><g transform="rotate(-8.372093276085728,0,0) rotate(-257.4418602122864,0,0) translate(-385,-400)" fill="" stroke=""/></g></g></g></g></g></g></g></g></g></g></g></g></g></g></g></g></g></g></g></g></g></g></g></g></g></g></g></g></g></g></g></g></g></g></g></g></g></g></g></g></g></g></g><g fill="#c64737" stroke="#c64737" stroke-miterlimit="10"><path fill="" stroke="" d=""/><g transform="translate(385,400) rotate(-82.46511627906976,0,0)"><path fill="none" stroke="none"/><path fill="" stroke="" d=" M 97.22582793207096 0 A 97.22582793207096 97.22582793207096 0 0 0 97.18431307211965 -2.8409346660745687"/><g transform="rotate(-1.6744186338728044,0,0) rotate(84.13953491294257,0,0) translate(-385,-400) translate(385,400) rotate(-74.09302325581395,0,0)" fill="" stroke=""><path fill="none" stroke="none"/><path fill="" stroke="" d=" M 158.5599664865017 0 A 158.5599664865017 158.5599664865017 0 0 0 158.4922623080691 -4.6331156548016"/><g transform="rotate(-1.6744186338728044,0,0) rotate(75.76744188968675,0,0) translate(-385,-400) translate(385,400) rotate(-65.72093023255813,0,0)" fill="" stroke=""><path fill="none" stroke="none"/><path fill="" stroke="" d=" M 165.4625383160536 0 A 165.4625383160536 165.4625383160536 0 0 0 165.39188677981593 -4.8348085178270965"/><g transform="rotate(-1.6744186338728044,0,0) rotate(67.39534886643094,0,0) translate(-385,-400) translate(385,400) rotate(-57.34883720930233,0,0)" fill="" stroke=""><path fill="none" stroke="none"/><path fill="" stroke="" d=" M 158.1282419297022 0 A 158.1282419297022 158.1282419297022 0 0 0 158.06072209513061 -4.620500681129538"/><g transform="rotate(-1.6744186338728044,0,0) rotate(59.02325584317514,0,0) translate(-385,-400) translate(385,400) rotate(-48.97674418604652,0,0)" fill="" stroke=""><path fill="none" stroke="none"/><path fill="" stroke="" d=" M 163.6923486271719 0 A 163.6923486271719 163.6923486271719 0 0 0 163.62245295157933 -4.783083648421146"/><g transform="rotate(-1.6744186338728044,0,0) rotate(50.65116281991932,0,0) translate(-385,-400) translate(385,400) rotate(-40.6046511627907,0,0)" fill="" stroke=""><path fill="none" stroke="none"/><path fill="" stroke="" d=" M 171.31498167069776 0 A 171.31498167069776 171.31498167069776 0 0 0 171.2418311753727 -5.005816670301383"/><g transform="rotate(-1.6744186338728044,0,0) rotate(42.27906979666351,0,0) translate(-385,-400) translate(385,400) rotate(-32.23255813953489,0,0)" fill="" stroke=""><path fill="none" stroke="none"/><path fill="" stroke="" d=" M 180.2918882846718 0 A 180.2918882846718 180.2918882846718 0 0 0 180.21490470271945 -5.26812150982994"/><g transform="rotate(-1.6744186338728044,0,0) rotate(33.90697677340769,0,0) translate(-385,-400) translate(385,400) rotate(-23.860465116279073,0,0)" fill="" stroke=""><path fill="none" stroke="none"/><path fill="" stroke="" d=" M 212.5641535076752 0 A 212.5641535076752 212.5641535076752 0 0 0 212.4733898572005 -6.211115763258563"/><g transform="rotate(-1.6744186338728044,0,0) rotate(25.534883750151877,0,0) translate(-385,-400) translate(385,400) rotate(-15.488372093023258,0,0)" fill="" stroke=""><path fill="none" stroke="none"/><path fill="" stroke="" d=" M 175.25949885052512 0 A 175.25949885052512 175.25949885052512 0 0 0 175.18466406943176 -5.1210752989543336"/><g transform="rotate(-1.6744186338728044,0,0) rotate(17.162790726896063,0,0) translate(-385,-400) translate(385,400) rotate(-7.116279069767441,0,0)" fill="" stroke=""><path fill="none" stroke="none"/><path fill="" stroke="" d=" M 180.41376328597948 0 A 180.41376328597948 180.41376328597948 0 0 0 180.33672766411428 -5.271682692321333"/><g transform="rotate(-1.6744186338728044,0,0) rotate(8.790697703640246,0,0) translate(-385,-400) translate(385,400) rotate(1.2558139534883743,0,0)" fill="" stroke=""><path fill="none" stroke="none"/><path fill="" stroke="" d=" M 185.74888299879785 0 A 185.74888299879785 185.74888299879785 0 0 0 185.669569312015 -5.42757466940373"/><g transform="rotate(-1.6744186338728044,0,0) rotate(0.41860468038443016,0,0) translate(-385,-400) translate(385,400) rotate(9.627906976744192,0,0)" fill="" stroke=""><path fill="none" stroke="none"/><path fill="" stroke="" d=" M 161.62204210264167 0 A 161.62204210264167 161.62204210264167 0 0 0 161.55303043582796 -4.722589377505319"/><g transform="rotate(-1.6744186338728044,0,0) rotate(-7.953488342871387,0,0) translate(-385,-400) translate(385,400) rotate(17.999999999999993,0,0)" fill="" stroke=""><path fill="none" stroke="none"/><path fill="" stroke="" d=" M 170.4652454278173 0 A 170.4652454278173 170.4652454278173 0 0 0 170.3924577648987 -4.98098741247181"/><g transform="rotate(-1.6744186338728044,0,0) rotate(-16.32558136612719,0,0) translate(-385,-400) translate(385,400) rotate(26.372093023255808,0,0)" fill="" stroke=""><path fill="none" stroke="none"/><path fill="" stroke="" d=" M 177.94437406635973 0 A 177.94437406635973 177.94437406635973 0 0 0 177.86839285925035 -5.199527241580918"/><g transform="rotate(-1.6744186338728044,0,0) rotate(-24.697674389383003,0,0) translate(-385,-400) translate(385,400) rotate(34.74418604651162,0,0)" fill="" stroke=""><path fill="none" stroke="none"/><path fill="" stroke="" d=" M 142.47417519237445 0 A 142.47417519237445 142.47417519237445 0 0 0 142.41333955275488 -4.163089499296346"/><g transform="rotate(-1.6744186338728044,0,0) rotate(-33.06976741263882,0,0) translate(-385,-400) translate(385,400) rotate(43.11627906976745,0,0)" fill="" stroke=""><path fill="none" stroke="none"/><path fill="" stroke="" d=" M 162.60952192208856 0 A 162.60952192208856 162.60952192208856 0 0 0 162.54008860716672 -4.751443496938231"/><g transform="rotate(-1.6744186338728044,0,0) rotate(-41.44186043589465,0,0) translate(-385,-400) translate(385,400) rotate(51.48837209302326,0,0)" fill="" stroke=""><path fill="none" stroke="none"/><path fill="" stroke="" d=" M 152.8908164332638 0 A 152.8908164332638 152.8908164332638 0 0 0 152.8255329487508 -4.4674633250042675"/><g transform="rotate(-1.6744186338728044,0,0) rotate(-49.813953459150454,0,0) translate(-385,-400) translate(385,400) rotate(59.860465116279066,0,0)" fill="" stroke=""><path fill="none" stroke="none"/><path fill="" stroke="" d=" M 114.33960819514647 0 A 114.33960819514647 114.33960819514647 0 0 0 114.29078585110405 -3.3409986166836894"/><g transform="rotate(-1.6744186338728044,0,0) rotate(-58.18604648240626,0,0) translate(-385,-400) translate(385,400) rotate(68.2325581395349,0,0)" fill="" stroke=""><path fill="none" stroke="none"/><path fill="" stroke="" d=" M 142.44311466502415 0 A 142.44311466502415 142.44311466502415 0 0 0 142.38229228806813 -4.16218191197338"/><g transform="rotate(-1.6744186338728044,0,0) rotate(-66.5581395056621,0,0) translate(-385,-400) translate(385,400) rotate(76.6046511627907,0,0)" fill="" stroke=""><path fill="none" stroke="none"/><path fill="" stroke="" d=" M 77.26456890279883 0 A 77.26456890279883 77.26456890279883 0 0 0 77.23157738371977 -2.2576675038306644"/><g transform="rotate(-1.6744186338728044,0,0) rotate(-74.9302325289179,0,0) translate(-385,-400) translate(385,400) rotate(84.97674418604653,0,0)" fill="" stroke=""><path fill="none" stroke="none"/><path fill="" stroke="" d=" M 108.96550702577986 0 A 108.96550702577986 108.96550702577986 0 0 0 108.91897939150905 -3.1839676030551662"/><g transform="rotate(-1.6744186338728044,0,0) rotate(-83.30232555217373,0,0) translate(-385,-400) translate(385,400) rotate(93.34883720930233,0,0)" fill="" stroke=""><path fill="none" stroke="none"/><path fill="" stroke="" d=" M 124.01864534809323 0 A 124.01864534809323 124.01864534809323 0 0 0 123.96569011178941 -3.623819681485955"/><g transform="rotate(-1.6744186338728044,0,0) rotate(-91.67441857542953,0,0) translate(-385,-400) translate(385,400) rotate(101.72093023255816,0,0)" fill="" stroke=""><path fill="none" stroke="none"/><path fill="" stroke="" d=" M 142.23513609633392 0 A 142.23513609633392 142.23513609633392 0 0 0 142.17440252501046 -4.156104786808599"/><g transform="rotate(-1.6744186338728044,0,0) rotate(-100.04651159868536,0,0) translate(-385,-400) translate(385,400) rotate(110.09302325581395,0,0)" fill="" stroke=""><path fill="none" stroke="none"/><path fill="" stroke="" d=" M 176.31392996169154 0 A 176.31392996169154 176.31392996169154 0 0 0 176.23864494468003 -5.151885732358852"/><g transform="rotate(-1.6744186338728044,0,0) rotate(-108.41860462194114,0,0) translate(-385,-400) translate(385,400) rotate(118.46511627906975,0,0)" fill="" stroke=""><path fill="none" stroke="none"/><path fill="" stroke="" d=" M 159.3343342379162 0 A 159.3343342379162 159.3343342379162 0 0 0 159.26629940898223 -4.65574264843153"/><g transform="rotate(-1.6744186338728044,0,0) rotate(-116.79069764519694,0,0) translate(-385,-400) translate(385,400) rotate(126.83720930232558,0,0)" fill="" stroke=""><path fill="none" stroke="none"/><path fill="" stroke="" d=" M 162.18746293914455 0 A 162.18746293914455 162.18746293914455 0 0 0 162.1182098409402 -4.739110950933978"/><g transform="rotate(-1.6744186338728044,0,0) rotate(-125.16279066845277,0,0) translate(-385,-400) translate(385,400) rotate(135.20930232558138,0,0)" fill="" stroke=""><path fill="none" stroke="none"/><path fill="" stroke="" d=" M 153.07637937984327 0 A 153.07637937984327 153.07637937984327 0 0 0 153.01101666103725 -4.472885466619198"/><g transform="rotate(-1.6744186338728044,0,0) rotate(-133.53488369170856,0,0) translate(-385,-400) translate(385,400) rotate(143.5813953488372,0,0)" fill="" stroke=""><path fill="none" stroke="none"/><path fill="" stroke="" d=" M 159.3343342379162 0 A 159.3343342379162 159.3343342379162 0 0 0 159.26629940898223 -4.65574264843153"/><g transform="rotate(-1.6744186338728044,0,0) rotate(-141.9069767149644,0,0) translate(-385,-400) translate(385,400) rotate(151.953488372093,0,0)" fill="" stroke=""><path fill="none" stroke="none"/><path fill="" stroke="" d=" M 250.6236355238575 0 A 250.6236355238575 250.6236355238575 0 0 0 250.51662069713336 -7.323212251736477"/><g transform="rotate(-1.6744186338728044,0,0) rotate(-150.27906973822022,0,0) translate(-385,-400) translate(385,400) rotate(160.3255813953488,0,0)" fill="" stroke=""><path fill="none" stroke="none"/><path fill="" stroke="" d=" M 153.4608929424918 0 A 153.4608929424918 153.4608929424918 0 0 0 153.39536603864315 -4.484120936997164"/><g transform="rotate(-1.6744186338728044,0,0) rotate(-158.651162761476,0,0) translate(-385,-400) translate(385,400) rotate(168.69767441860466,0,0)" fill="" stroke=""><path fill="none" stroke="none"/><path fill="" stroke="" d=" M 187.56679673171288 0 A 187.56679673171288 187.56679673171288 0 0 0 187.48670680639722 -5.480694033400091"/><g transform="rotate(-1.6744186338728044,0,0) rotate(-167.02325578473184,0,0) translate(-385,-400) translate(385,400) rotate(177.06976744186048,0,0)" fill="" stroke=""><path fill="none" stroke="none"/><path fill="" stroke="" d=" M 192.34710037320076 0 A 192.34710037320076 192.34710037320076 0 0 0 192.26496928618536 -5.620374307853026"/><g transform="rotate(-1.6744186338728044,0,0) rotate(-175.3953488079877,0,0) translate(-385,-400) translate(385,400) rotate(185.44186046511626,0,0)" fill="" stroke=""><path fill="none" stroke="none"/><path fill="" stroke="" d=" M 174.16675398053383 0 A 174.16675398053383 174.16675398053383 0 0 0 174.0923857951096 -5.089145339103517"/><g transform="rotate(-1.6744186338728044,0,0) rotate(-183.76744183124347,0,0) translate(-385,-400) translate(385,400) rotate(193.81395348837208,0,0)" fill="" stroke=""><path fill="none" stroke="none"/><path fill="" stroke="" d=" M 174.19090846612255 0 A 174.19090846612255 174.19090846612255 0 0 0 174.11652996687423 -5.089851132172187"/><g transform="rotate(-1.6744186338728044,0,0) rotate(-192.13953485449926,0,0) translate(-385,-400) translate(385,400) rotate(210.55813953488374,0,0)" fill="" stroke=""><path fill="none" stroke="none"/><path fill="" stroke="" d=" M 174.62119136699653 0 A 174.62119136699653 174.62119136699653 0 0 0 174.54662913946584 -5.102423980717803"/><g transform="rotate(-1.6744186338728044,0,0) rotate(-208.88372090101092,0,0) translate(-385,-400) translate(385,400) rotate(218.93023255813952,0,0)" fill="" stroke=""><path fill="none" stroke="none"/><path fill="" stroke="" d=" M 192.1824023994319 0 A 192.1824023994319 192.1824023994319 0 0 0 192.10034163748816 -5.615561839879607"/><g transform="rotate(-1.6744186338728044,0,0) rotate(-217.2558139242667,0,0) translate(-385,-400) translate(385,400) rotate(227.30232558139534,0,0)" fill="" stroke=""><path fill="none" stroke="none"/><path fill="" stroke="" d=" M 233.57821356239026 0 A 233.57821356239026 233.57821356239026 0 0 0 233.4784770311622 -6.825145727869647"/><g transform="rotate(-1.6744186338728044,0,0) rotate(-225.62790694752255,0,0) translate(-385,-400) translate(385,400) rotate(235.67441860465115,0,0)" fill="" stroke=""><path fill="none" stroke="none"/><path fill="" stroke="" d=" M 136.64042450463955 0 A 136.64042450463955 136.64042450463955 0 0 0 136.58207984244794 -3.9926275457750884"/><g transform="rotate(-1.6744186338728044,0,0) rotate(-233.99999997077833,0,0) translate(-385,-400) translate(385,400) rotate(244.046511627907,0,0)" fill="" stroke=""><path fill="none" stroke="none"/><path fill="" stroke="" d=" M 157.10561701379822 0 A 157.10561701379822 157.10561701379822 0 0 0 157.03853383408543 -4.5906196234335015"/><g transform="rotate(-1.6744186338728044,0,0) rotate(-242.3720929940342,0,0) translate(-385,-400) translate(385,400) rotate(252.41860465116284,0,0)" fill="" stroke=""><path fill="none" stroke="none"/><path fill="" stroke="" d=" M 134.28771287414725 0 A 134.28771287414725 134.28771287414725 0 0 0 134.2303728060632 -3.9238814093573837"/><g transform="rotate(-1.6744186338728044,0,0) rotate(-250.74418601729002,0,0) translate(-385,-400) translate(385,400) rotate(260.7906976744186,0,0)" fill="" stroke=""><path fill="none" stroke="none"/><path fill="" stroke="" d=" M 105.41444464180398 0 A 105.41444464180398 105.41444464180398 0 0 0 105.36943329040456 -3.080205707244118"/><g transform="rotate(-1.6744186338728044,0,0) rotate(-259.1162790405458,0,0) translate(-385,-400)" fill="" stroke=""/></g></g></g></g></g></g></g></g></g></g></g></g></g></g></g></g></g></g></g></g></g></g></g></g></g></g></g></g></g></g></g></g></g></g></g></g></g></g></g></g></g></g><g fill="black" stroke="black" stroke-miterlimit="10"><path fill="" stroke="" d=""/><g transform="translate(385,400) rotate(-79.11627906976744,0,0)"><path fill="none" stroke="none"/><path fill="" stroke="" d=" M 101.4183773824434 0 A 101.4183773824434 101.4183773824434 0 0 0 101.37507232839477 -2.963440787401884"/><g transform="rotate(-1.6744186338728044,0,0) rotate(80.79069770364025,0,0) translate(-385,-400) translate(385,400) rotate(-70.74418604651163,0,0)" fill="" stroke=""><path fill="none" stroke="none"/><path fill="" stroke="" d=" M 159.61055237963728 0 A 159.61055237963728 159.61055237963728 0 0 0 159.54239960717211 -4.663813731094486"/><g transform="rotate(-1.6744186338728044,0,0) rotate(72.41860468038443,0,0) translate(-385,-400) translate(385,400) rotate(-62.372093023255815,0,0)" fill="" stroke=""><path fill="none" stroke="none"/><path fill="" stroke="" d=" M 156.56170529456858 0 A 156.56170529456858 156.56170529456858 0 0 0 156.49485436197912 -4.574726545520878"/><g transform="rotate(-1.6744186338728044,0,0) rotate(64.04651165712862,0,0) translate(-385,-400) translate(385,400) rotate(-54.000000000000014,0,0)" fill="" stroke=""><path fill="none" stroke="none"/><path fill="" stroke="" d=" M 156.95546455991382 0 A 156.95546455991382 156.95546455991382 0 0 0 156.88844549442075 -4.58623217494878"/><g transform="rotate(-1.6744186338728044,0,0) rotate(55.67441863387282,0,0) translate(-385,-400) translate(385,400) rotate(-45.627906976744185,0,0)" fill="" stroke=""><path fill="none" stroke="none"/><path fill="" stroke="" d=" M 170.84459349649114 0 A 170.84459349649114 170.84459349649114 0 0 0 170.77164385416563 -4.992071947329738"/><g transform="rotate(-1.6744186338728044,0,0) rotate(47.30232561061699,0,0) translate(-385,-400) translate(385,400) rotate(-37.25581395348838,0,0)" fill="" stroke=""><path fill="none" stroke="none"/><path fill="" stroke="" d=" M 181.83951648887376 0 A 181.83951648887376 181.83951648887376 0 0 0 181.76187207872871 -5.313343141869771"/><g transform="rotate(-1.6744186338728044,0,0) rotate(38.93023258736118,0,0) translate(-385,-400) translate(385,400) rotate(-28.883720930232563,0,0)" fill="" stroke=""><path fill="none" stroke="none"/><path fill="" stroke="" d=" M 167.94729450533055 0 A 167.94729450533055 167.94729450533055 0 0 0 167.8755819927309 -4.907412990784551"/><g transform="rotate(-1.6744186338728044,0,0) rotate(30.558139564105367,0,0) translate(-385,-400) translate(385,400) rotate(-20.511627906976745,0,0)" fill="" stroke=""><path fill="none" stroke="none"/><path fill="" stroke="" d=" M 203.94551337945757 0 A 203.94551337945757 203.94551337945757 0 0 0 203.85842983791588 -5.959279455608071"/><g transform="rotate(-1.6744186338728044,0,0) rotate(22.18604654084955,0,0) translate(-385,-400) translate(385,400) rotate(-12.13953488372093,0,0)" fill="" stroke=""><path fill="none" stroke="none"/><path fill="" stroke="" d=" M 173.62637147446765 0 A 173.62637147446765 173.62637147446765 0 0 0 173.55223402921337 -5.073355384653386"/><g transform="rotate(-1.6744186338728044,0,0) rotate(13.813953517593735,0,0) translate(-385,-400) translate(385,400) rotate(-3.767441860465115,0,0)" fill="" stroke=""><path fill="none" stroke="none"/><path fill="" stroke="" d=" M 177.64563449138677 0 A 177.64563449138677 177.64563449138677 0 0 0 177.56978084432887 -5.190798083570949"/><g transform="rotate(-1.6744186338728044,0,0) rotate(5.441860494337919,0,0) translate(-385,-400) translate(385,400) rotate(4.604651162790701,0,0)" fill="" stroke=""><path fill="none" stroke="none"/><path fill="" stroke="" d=" M 187.83198817850814 0 A 187.83198817850814 187.83198817850814 0 0 0 187.75178501799553 -5.488442916493929"/><g transform="rotate(-1.6744186338728044,0,0) rotate(-2.9302325289178968,0,0) translate(-385,-400) translate(385,400) rotate(12.976744186046519,0,0)" fill="" stroke=""><path fill="none" stroke="none"/><path fill="" stroke="" d=" M 159.75619636494503 0 A 159.75619636494503 159.75619636494503 0 0 0 159.68798140334985 -4.668069442314092"/><g transform="rotate(-1.6744186338728044,0,0) rotate(-11.302325552173714,0,0) translate(-385,-400) translate(385,400) rotate(21.34883720930232,0,0)" fill="" stroke=""><path fill="none" stroke="none"/><path fill="" stroke="" d=" M 169.83255458224664 0 A 169.83255458224664 169.83255458224664 0 0 0 169.76003707461913 -4.962500212163827"/><g transform="rotate(-1.6744186338728044,0,0) rotate(-19.674418575429517,0,0) translate(-385,-400) translate(385,400) rotate(29.720930232558132,0,0)" fill="" stroke=""><path fill="none" stroke="none"/><path fill="" stroke="" d=" M 178.60575148323676 0 A 178.60575148323676 178.60575148323676 0 0 0 178.52948787183809 -5.218852662314569"/><g transform="rotate(-1.6744186338728044,0,0) rotate(-28.046511598685328,0,0) translate(-385,-400) translate(385,400) rotate(38.093023255813954,0,0)" fill="" stroke=""><path fill="none" stroke="none"/><path fill="" stroke="" d=" M 138.75699650314186 0 A 138.75699650314186 138.75699650314186 0 0 0 138.69774807708455 -4.054473691924536"/><g transform="rotate(-1.6744186338728044,0,0) rotate(-36.41860462194115,0,0) translate(-385,-400) translate(385,400) rotate(46.46511627906978,0,0)" fill="" stroke=""><path fill="none" stroke="none"/><path fill="" stroke="" d=" M 163.76898467003298 0 A 163.76898467003298 163.76898467003298 0 0 0 163.69905627129828 -4.785322950420064"/><g transform="rotate(-1.6744186338728044,0,0) rotate(-44.79069764519698,0,0) translate(-385,-400) translate(385,400) rotate(54.83720930232558,0,0)" fill="" stroke=""><path fill="none" stroke="none"/><path fill="" stroke="" d=" M 147.91014721814884 0 A 147.91014721814884 147.91014721814884 0 0 0 147.84699045026377 -4.321928376787045"/><g transform="rotate(-1.6744186338728044,0,0) rotate(-53.16279066845278,0,0) translate(-385,-400) translate(385,400) rotate(63.20930232558138,0,0)" fill="" stroke=""><path fill="none" stroke="none"/><path fill="" stroke="" d=" M 124.04672936662058 0 A 124.04672936662058 124.04672936662058 0 0 0 123.99376213860508 -3.624640295344371"/><g transform="rotate(-1.6744186338728044,0,0) rotate(-61.53488369170858,0,0) translate(-385,-400) translate(385,400) rotate(71.58139534883722,0,0)" fill="" stroke=""><path fill="none" stroke="none"/><path fill="" stroke="" d=" M 149.0849450758127 0 A 149.0849450758127 149.0849450758127 0 0 0 149.02128667611262 -4.356255921539858"/><g transform="rotate(-1.6744186338728044,0,0) rotate(-69.90697671496442,0,0) translate(-385,-400) translate(385,400) rotate(79.95348837209302,0,0)" fill="" stroke=""><path fill="none" stroke="none"/><path fill="" stroke="" d=" M 69.5481320766529 0 A 69.5481320766529 69.5481320766529 0 0 0 69.51843543097297 -2.0321935393066632"/><g transform="rotate(-1.6744186338728044,0,0) rotate(-78.27906973822022,0,0) translate(-385,-400) translate(385,400) rotate(88.32558139534885,0,0)" fill="" stroke=""><path fill="none" stroke="none"/><path fill="" stroke="" d=" M 97.10729044554569 0 A 97.10729044554569 97.10729044554569 0 0 0 97.06582620040791 -2.837471005626912"/><g transform="rotate(-1.6744186338728044,0,0) rotate(-86.65116276147604,0,0) translate(-385,-400) translate(385,400) rotate(96.69767441860466,0,0)" fill="" stroke=""><path fill="none" stroke="none"/><path fill="" stroke="" d=" M 122.46214943985467 0 A 122.46214943985467 122.46214943985467 0 0 0 122.4098588182013 -3.5783389355013835"/><g transform="rotate(-1.6744186338728044,0,0) rotate(-95.02325578473186,0,0) translate(-385,-400) translate(385,400) rotate(105.06976744186049,0,0)" fill="" stroke=""><path fill="none" stroke="none"/><path fill="" stroke="" d=" M 144.98955938150493 0 A 144.98955938150493 144.98955938150493 0 0 0 144.92764968754653 -4.236588921141222"/><g transform="rotate(-1.6744186338728044,0,0) rotate(-103.39534880798769,0,0) translate(-385,-400) translate(385,400) rotate(113.44186046511626,0,0)" fill="" stroke=""><path fill="none" stroke="none"/><path fill="" stroke="" d=" M 175.41591659213884 0 A 175.41591659213884 175.41591659213884 0 0 0 175.34101502158455 -5.125645818887062"/><g transform="rotate(-1.6744186338728044,0,0) rotate(-111.76744183124346,0,0) translate(-385,-400) translate(385,400) rotate(121.81395348837208,0,0)" fill="" stroke=""><path fill="none" stroke="none"/><path fill="" stroke="" d=" M 162.52501851910984 0 A 162.52501851910984 162.52501851910984 0 0 0 162.45562128664687 -4.74897431100246"/><g transform="rotate(-1.6744186338728044,0,0) rotate(-120.13953485449927,0,0) translate(-385,-400) translate(385,400) rotate(130.1860465116279,0,0)" fill="" stroke=""><path fill="none" stroke="none"/><path fill="" stroke="" d=" M 162.64978499613846 0 A 162.64978499613846 162.64978499613846 0 0 0 162.58033448911945 -4.752619982294684"/><g transform="rotate(-1.6744186338728044,0,0) rotate(-128.5116278777551,0,0) translate(-385,-400) translate(385,400) rotate(138.5581395348837,0,0)" fill="" stroke=""><path fill="none" stroke="none"/><path fill="" stroke="" d=" M 150.9545647706998 0 A 150.9545647706998 150.9545647706998 0 0 0 150.89010805432352 -4.4108861316039105"/><g transform="rotate(-1.6744186338728044,0,0) rotate(-136.8837209010109,0,0) translate(-385,-400) translate(385,400) rotate(146.93023255813952,0,0)" fill="" stroke=""><path fill="none" stroke="none"/><path fill="" stroke="" d=" M 162.52501851910984 0 A 162.52501851910984 162.52501851910984 0 0 0 162.45562128664687 -4.74897431100246"/><g transform="rotate(-1.6744186338728044,0,0) rotate(-145.25581392426673,0,0) translate(-385,-400) translate(385,400) rotate(155.30232558139534,0,0)" fill="" stroke=""><path fill="none" stroke="none"/><path fill="" stroke="" d=" M 225.30112329967073 0 A 225.30112329967073 225.30112329967073 0 0 0 225.20492103758053 -6.583289493145504"/><g transform="rotate(-1.6744186338728044,0,0) rotate(-153.62790694752252,0,0) translate(-385,-400) translate(385,400) rotate(163.67441860465112,0,0)" fill="" stroke=""><path fill="none" stroke="none"/><path fill="" stroke="" d=" M 154.6475204250861 0 A 154.6475204250861 154.6475204250861 0 0 0 154.58148683824177 -4.518794142900582"/><g transform="rotate(-1.6744186338728044,0,0) rotate(-161.99999997077833,0,0) translate(-385,-400) translate(385,400) rotate(172.046511627907,0,0)" fill="" stroke=""><path fill="none" stroke="none"/><path fill="" stroke="" d=" M 183.13103784039242 0 A 183.13103784039242 183.13103784039242 0 0 0 183.05284195818308 -5.351081342279526"/><g transform="rotate(-1.6744186338728044,0,0) rotate(-170.3720929940342,0,0) translate(-385,-400) translate(385,400) rotate(180.41860465116278,0,0)" fill="" stroke=""><path fill="none" stroke="none"/><path fill="" stroke="" d=" M 185.11511166924186 0 A 185.11511166924186 185.11511166924186 0 0 0 185.03606859911045 -5.409055897398438"/><g transform="rotate(-1.6744186338728044,0,0) rotate(-178.74418601729,0,0) translate(-385,-400) translate(385,400) rotate(188.79069767441862,0,0)" fill="" stroke=""><path fill="none" stroke="none"/><path fill="" stroke="" d=" M 174.18564896689372 0 A 174.18564896689372 174.18564896689372 0 0 0 174.11127271342082 -5.089697449822516"/><g transform="rotate(-1.6744186338728044,0,0) rotate(-187.1162790405458,0,0) translate(-385,-400) translate(385,400) rotate(197.1627906976744,0,0)" fill="" stroke=""><path fill="none" stroke="none"/><path fill="" stroke="" d=" M 174.45308081343092 0 A 174.45308081343092 174.45308081343092 0 0 0 174.37859036812347 -5.097511797304038"/><g transform="rotate(-1.6744186338728044,0,0) rotate(-195.48837206380162,0,0) translate(-385,-400) translate(385,400) rotate(213.90697674418607,0,0)" fill="" stroke=""><path fill="none" stroke="none"/><path fill="" stroke="" d=" M 174.47908834322072 0 A 174.47908834322072 174.47908834322072 0 0 0 174.40458679285015 -5.09827173624753"/><g transform="rotate(-1.6744186338728044,0,0) rotate(-212.23255811031328,0,0) translate(-385,-400) translate(385,400) rotate(222.27906976744185,0,0)" fill="" stroke=""><path fill="none" stroke="none"/><path fill="" stroke="" d=" M 186.95983433958077 0 A 186.95983433958077 186.95983433958077 0 0 0 186.88000358365704 -5.462958617436173"/><g transform="rotate(-1.6744186338728044,0,0) rotate(-220.60465113356906,0,0) translate(-385,-400) translate(385,400) rotate(230.65116279069773,0,0)" fill="" stroke=""><path fill="none" stroke="none"/><path fill="" stroke="" d=" M 204.52509018116837 0 A 204.52509018116837 204.52509018116837 0 0 0 204.43775916372172 -5.97621466575391"/><g transform="rotate(-1.6744186338728044,0,0) rotate(-228.97674415682494,0,0) translate(-385,-400) translate(385,400) rotate(239.02325581395348,0,0)" fill="" stroke=""><path fill="none" stroke="none"/><path fill="" stroke="" d=" M 143.10241774437145 0 A 143.10241774437145 143.10241774437145 0 0 0 143.04131384885613 -4.181446720650309"/><g transform="rotate(-1.6744186338728044,0,0) rotate(-237.3488371800807,0,0) translate(-385,-400) translate(385,400) rotate(247.39534883720933,0,0)" fill="" stroke=""><path fill="none" stroke="none"/><path fill="" stroke="" d=" M 157.72151021127627 0 A 157.72151021127627 157.72151021127627 0 0 0 157.6541640487699 -4.608615997159806"/><g transform="rotate(-1.6744186338728044,0,0) rotate(-245.7209302033365,0,0) translate(-385,-400) translate(385,400) rotate(255.76744186046517,0,0)" fill="" stroke=""><path fill="none" stroke="none"/><path fill="" stroke="" d=" M 132.984589323641 0 A 132.984589323641 132.984589323641 0 0 0 132.92780568169235 -3.885804193173656"/><g transform="rotate(-1.6744186338728044,0,0) rotate(-254.09302322659238,0,0) translate(-385,-400) translate(385,400) rotate(264.13953488372096,0,0)" fill="" stroke=""><path fill="none" stroke="none"/><path fill="" stroke="" d=" M 115.37553501216394 0 A 115.37553501216394 115.37553501216394 0 0 0 115.32627033342874 -3.371268355379434"/><g transform="rotate(-1.6744186338728044,0,0) rotate(-262.4651162498481,0,0) translate(-385,-400)" fill="" stroke=""/></g></g></g></g></g></g></g></g></g></g></g></g></g></g></g></g></g></g></g></g></g></g></g></g></g></g></g></g></g></g></g></g></g></g></g></g></g></g></g></g></g></g><g><path fill="none" stroke="none"/><path fill="none" stroke="white" paint-order="fill stroke markers" d=" M 650.8333333333334 400 A 265.83333333333337 265.83333333333337 0 1 1 650.8332004166778 399.7341667109721" stroke-miterlimit="10"/><path fill="none" stroke="white" paint-order="fill stroke markers" d=" M 612.8637567824663 400 A 227.86375678246634 227.86375678246634 0 1 1 612.8636428505974 399.7721362811947" stroke-miterlimit="10"/><path fill="none" stroke="white" paint-order="fill stroke markers" d=" M 583.7286759728529 400 A 198.7286759728529 198.7286759728529 0 1 1 583.7285766085232 399.8012713571485" stroke-miterlimit="10"/><path fill="none" stroke="white" paint-order="fill stroke markers" d=" M 559.1666666666667 400 A 174.16666666666674 174.16666666666674 0 1 1 559.1665795833406 399.825833362361" stroke-miterlimit="10"/><path fill="none" stroke="white" paint-order="fill stroke markers" d=" M 537.5271020625194 400 A 152.52710206251936 152.52710206251936 0 1 1 537.5270257989747 399.84747292335857" stroke-miterlimit="10"/><path fill="none" stroke="white" paint-order="fill stroke markers" d=" M 517.9634402448754 400 A 132.96344024487541 132.96344024487541 0 1 1 517.9633737631608 399.8670365819156" stroke-miterlimit="10"/><path fill="none" stroke="white" paint-order="fill stroke markers" d=" M 499.97279648574585 400 A 114.97279648574585 114.97279648574585 0 1 1 499.9727389993524 399.88502722267634" stroke-miterlimit="10"/><path fill="none" stroke="white" paint-order="fill stroke markers" d=" M 483.2275135649326 400 A 98.22751356493262 98.22751356493262 0 1 1 483.2274644511799 399.90177250280624" stroke-miterlimit="10"/><path fill="none" stroke="white" paint-order="fill stroke markers" d=" M 467.5 400 A 82.5 82.5 0 1 1 467.49995875000343 399.91750001374993" stroke-miterlimit="10"/></g><g><path fill="none" stroke="none"/><g transform="translate(385,123.8095238095238) rotate(0,0,0)"><text fill="black" stroke="none" font-family="helvetica" font-size="8pt" font-style="normal" font-weight="normal" text-decoration="normal" x="0" y="0" text-anchor="middle" dominant-baseline="central">0.001</text></g><g transform="translate(385,163.2584345117233) rotate(0,0,0)"><text fill="black" stroke="none" font-family="helvetica" font-size="8pt" font-style="normal" font-weight="normal" text-decoration="normal" x="0" y="0" text-anchor="middle" dominant-baseline="central">0.01</text></g><g transform="translate(385,193.52864833989307) rotate(0,0,0)"><text fill="black" stroke="none" font-family="helvetica" font-size="8pt" font-style="normal" font-weight="normal" text-decoration="normal" x="0" y="0" text-anchor="middle" dominant-baseline="central">0.1</text></g><g transform="translate(385,219.04761904761904) rotate(0,0,0)"><text fill="black" stroke="none" font-family="helvetica" font-size="8pt" font-style="normal" font-weight="normal" text-decoration="normal" x="0" y="0" text-anchor="middle" dominant-baseline="central">1.0</text></g><g transform="translate(385,241.53028357140852) rotate(0,0,0)"><text fill="black" stroke="none" font-family="helvetica" font-size="8pt" font-style="normal" font-weight="normal" text-decoration="normal" x="0" y="0" text-anchor="middle" dominant-baseline="central">10.0</text></g><g transform="translate(385,261.8561659793503) rotate(0,0,0)"><text fill="black" stroke="none" font-family="helvetica" font-size="8pt" font-style="normal" font-weight="normal" text-decoration="normal" x="0" y="0" text-anchor="middle" dominant-baseline="central">100.0</text></g><g transform="translate(385,280.5477439109134) rotate(0,0,0)"><text fill="black" stroke="none" font-family="helvetica" font-size="8pt" font-style="normal" font-weight="normal" text-decoration="normal" x="0" y="0" text-anchor="middle" dominant-baseline="central">1000.0</text></g><g transform="translate(385,297.94544045201803) rotate(0,0,0)"><text fill="black" stroke="none" font-family="helvetica" font-size="8pt" font-style="normal" font-weight="normal" text-decoration="normal" x="0" y="0" text-anchor="middle" dominant-baseline="central">10000.0</text></g></g><g fill="black" stroke="black" stroke-miterlimit="10"><path fill="" stroke="" d=""/><g transform="translate(385,400) rotate(-77.44186046511629,0,0)"><path fill="none" stroke="none"/><path fill="" stroke="" d=""/><g transform="rotate(0,0,0) rotate(77.44186046511629,0,0) translate(-385,-400) translate(385,400) rotate(-69.06976744186046,0,0)" fill="" stroke=""><path fill="none" stroke="none"/><path fill="" stroke="" d=""/><g transform="rotate(0,0,0) rotate(69.06976744186046,0,0) translate(-385,-400) translate(385,400) rotate(-60.697674418604656,0,0)" fill="" stroke=""><path fill="none" stroke="none"/><path fill="" stroke="" d=""/><g transform="rotate(0,0,0) rotate(60.697674418604656,0,0) translate(-385,-400) translate(385,400) rotate(-52.32558139534884,0,0)" fill="" stroke=""><path fill="none" stroke="none"/><path fill="" stroke="" d=""/><g transform="rotate(0,0,0) rotate(52.32558139534884,0,0) translate(-385,-400) translate(385,400) rotate(-43.95348837209302,0,0)" fill="" stroke=""><path fill="none" stroke="none"/><path fill="" stroke="" d=""/><g transform="rotate(0,0,0) rotate(43.95348837209302,0,0) translate(-385,-400) translate(385,400) rotate(-35.581395348837205,0,0)" fill="" stroke=""><path fill="none" stroke="none"/><path fill="" stroke="" d=""/><g transform="rotate(0,0,0) rotate(35.581395348837205,0,0) translate(-385,-400) translate(385,400) rotate(-27.2093023255814,0,0)" fill="" stroke=""><path fill="none" stroke="none"/><path fill="" stroke="" d=""/><g transform="rotate(0,0,0) rotate(27.2093023255814,0,0) translate(-385,-400) translate(385,400) rotate(-18.837209302325583,0,0)" fill="" stroke=""><path fill="none" stroke="none"/><path fill="" stroke="" d=""/><g transform="rotate(0,0,0) rotate(18.837209302325583,0,0) translate(-385,-400) translate(385,400) rotate(-10.465116279069768,0,0)" fill="" stroke=""><path fill="none" stroke="none"/><path fill="" stroke="" d=""/><g transform="rotate(0,0,0) rotate(10.465116279069768,0,0) translate(-385,-400) translate(385,400) rotate(-2.0930232558139523,0,0)" fill="" stroke=""><path fill="none" stroke="none"/><path fill="" stroke="" d=""/><g transform="rotate(0,0,0) rotate(2.0930232558139523,0,0) translate(-385,-400) translate(385,400) rotate(6.279069767441864,0,0)" fill="" stroke=""><path fill="none" stroke="none"/><path fill="" stroke="" d=""/><g transform="rotate(0,0,0) rotate(-6.279069767441864,0,0) translate(-385,-400) translate(385,400) rotate(14.651162790697681,0,0)" fill="" stroke=""><path fill="none" stroke="none"/><path fill="" stroke="" d=""/><g transform="rotate(0,0,0) rotate(-14.651162790697681,0,0) translate(-385,-400) translate(385,400) rotate(23.023255813953487,0,0)" fill="" stroke=""><path fill="none" stroke="none"/><path fill="" stroke="" d=""/><g transform="rotate(0,0,0) rotate(-23.023255813953487,0,0) translate(-385,-400) translate(385,400) rotate(31.3953488372093,0,0)" fill="" stroke=""><path fill="none" stroke="none"/><path fill="" stroke="" d=""/><g transform="rotate(0,0,0) rotate(-31.3953488372093,0,0) translate(-385,-400) translate(385,400) rotate(39.76744186046512,0,0)" fill="" stroke=""><path fill="none" stroke="none"/><path fill="" stroke="" d=""/><g transform="rotate(0,0,0) rotate(-39.76744186046512,0,0) translate(-385,-400) translate(385,400) rotate(48.13953488372095,0,0)" fill="" stroke=""><path fill="none" stroke="none"/><path fill="" stroke="" d=""/><g transform="rotate(0,0,0) rotate(-48.13953488372095,0,0) translate(-385,-400) translate(385,400) rotate(56.51162790697675,0,0)" fill="" stroke=""><path fill="none" stroke="none"/><path fill="" stroke="" d=""/><g transform="rotate(0,0,0) rotate(-56.51162790697675,0,0) translate(-385,-400) translate(385,400) rotate(64.88372093023256,0,0)" fill="" stroke=""><path fill="none" stroke="none"/><path fill="" stroke="" d=""/><g transform="rotate(0,0,0) rotate(-64.88372093023256,0,0) translate(-385,-400) translate(385,400) rotate(73.25581395348838,0,0)" fill="" stroke=""><path fill="none" stroke="none"/><path fill="" stroke="" d=""/><g transform="rotate(0,0,0) rotate(-73.25581395348838,0,0) translate(-385,-400) translate(385,400) rotate(81.62790697674419,0,0)" fill="" stroke=""><path fill="none" stroke="none"/><path fill="" stroke="" d=""/><g transform="rotate(0,0,0) rotate(-81.62790697674419,0,0) translate(-385,-400) translate(385,400) rotate(90.00000000000001,0,0)" fill="" stroke=""><path fill="none" stroke="none"/><path fill="" stroke="" d=""/><g transform="rotate(0,0,0) rotate(-90.00000000000001,0,0) translate(-385,-400) translate(385,400) rotate(98.37209302325581,0,0)" fill="" stroke=""><path fill="none" stroke="none"/><path fill="" stroke="" d=""/><g transform="rotate(0,0,0) rotate(-98.37209302325581,0,0) translate(-385,-400) translate(385,400) rotate(106.74418604651164,0,0)" fill="" stroke=""><path fill="none" stroke="none"/><path fill="" stroke="" d=""/><g transform="rotate(0,0,0) rotate(-106.74418604651164,0,0) translate(-385,-400) translate(385,400) rotate(115.11627906976743,0,0)" fill="" stroke=""><path fill="none" stroke="none"/><path fill="" stroke="" d=""/><g transform="rotate(0,0,0) rotate(-115.11627906976743,0,0) translate(-385,-400) translate(385,400) rotate(123.48837209302324,0,0)" fill="" stroke=""><path fill="none" stroke="none"/><path fill="" stroke="" d=""/><g transform="rotate(0,0,0) rotate(-123.48837209302324,0,0) translate(-385,-400) translate(385,400) rotate(131.86046511627904,0,0)" fill="" stroke=""><path fill="none" stroke="none"/><path fill="" stroke="" d=""/><g transform="rotate(0,0,0) rotate(-131.86046511627904,0,0) translate(-385,-400) translate(385,400) rotate(140.23255813953486,0,0)" fill="" stroke=""><path fill="none" stroke="none"/><path fill="" stroke="" d=""/><g transform="rotate(0,0,0) rotate(-140.23255813953486,0,0) translate(-385,-400) translate(385,400) rotate(148.6046511627907,0,0)" fill="" stroke=""><path fill="none" stroke="none"/><path fill="" stroke="" d=""/><g transform="rotate(0,0,0) rotate(-148.6046511627907,0,0) translate(-385,-400) translate(385,400) rotate(156.97674418604652,0,0)" fill="" stroke=""><path fill="none" stroke="none"/><path fill="" stroke="" d=""/><g transform="rotate(0,0,0) rotate(-156.97674418604652,0,0) translate(-385,-400) translate(385,400) rotate(165.3488372093023,0,0)" fill="" stroke=""><path fill="none" stroke="none"/><path fill="" stroke="" d=""/><g transform="rotate(0,0,0) rotate(-165.3488372093023,0,0) translate(-385,-400) translate(385,400) rotate(173.72093023255817,0,0)" fill="" stroke=""><path fill="none" stroke="none"/><path fill="" stroke="" d=""/><g transform="rotate(0,0,0) rotate(-173.72093023255817,0,0) translate(-385,-400) translate(385,400) rotate(182.09302325581396,0,0)" fill="" stroke=""><path fill="none" stroke="none"/><path fill="" stroke="" d=""/><g transform="rotate(0,0,0) rotate(-182.09302325581396,0,0) translate(-385,-400) translate(385,400) rotate(190.46511627906975,0,0)" fill="" stroke=""><path fill="none" stroke="none"/><path fill="" stroke="" d=""/><g transform="rotate(0,0,0) rotate(-190.46511627906975,0,0) translate(-385,-400) translate(385,400) rotate(198.8372093023256,0,0)" fill="" stroke=""><path fill="none" stroke="none"/><path fill="" stroke="" d=""/><g transform="rotate(0,0,0) rotate(-198.8372093023256,0,0) translate(-385,-400) translate(385,400) rotate(207.20930232558138,0,0)" fill="" stroke=""><path fill="none" stroke="none"/><path fill="" stroke="" d=""/><g transform="rotate(0,0,0) rotate(-207.20930232558138,0,0) translate(-385,-400) translate(385,400) rotate(215.58139534883725,0,0)" fill="" stroke=""><path fill="none" stroke="none"/><path fill="" stroke="" d=""/><g transform="rotate(0,0,0) rotate(-215.58139534883725,0,0) translate(-385,-400) translate(385,400) rotate(223.95348837209303,0,0)" fill="" stroke=""><path fill="none" stroke="none"/><path fill="" stroke="" d=""/><g transform="rotate(0,0,0) rotate(-223.95348837209303,0,0) translate(-385,-400) translate(385,400) rotate(232.32558139534888,0,0)" fill="" stroke=""><path fill="none" stroke="none"/><path fill="" stroke="" d=""/><g transform="rotate(0,0,0) rotate(-232.32558139534888,0,0) translate(-385,-400) translate(385,400) rotate(240.69767441860463,0,0)" fill="" stroke=""><path fill="none" stroke="none"/><path fill="" stroke="" d=""/><g transform="rotate(0,0,0) rotate(-240.69767441860463,0,0) translate(-385,-400) translate(385,400) rotate(249.06976744186045,0,0)" fill="" stroke=""><path fill="none" stroke="none"/><path fill="" stroke="" d=""/><g transform="rotate(0,0,0) rotate(-249.06976744186045,0,0) translate(-385,-400) translate(385,400) rotate(257.4418604651163,0,0)" fill="" stroke=""><path fill="none" stroke="none"/><path fill="" stroke="" d=""/><g transform="rotate(0,0,0) rotate(-257.4418604651163,0,0) translate(-385,-400) translate(385,400) rotate(265.8139534883721,0,0)" fill="" stroke=""><path fill="none" stroke="none"/><path fill="" stroke="" d=""/><g transform="rotate(0,0,0) rotate(-265.8139534883721,0,0) translate(-385,-400)" fill="" stroke=""/></g></g></g></g></g></g></g></g></g></g></g></g></g></g></g></g></g></g></g></g></g></g></g></g></g></g></g></g></g></g></g></g></g></g></g></g></g></g></g></g></g></g></g><g><path fill="none" stroke="none"/><path fill="#deebf7" stroke="#deebf7" paint-order="fill stroke markers" d=" M 352.9166666666667 723.8095238095239 A 4.583333333333371 4.583333333333371 0 1 1 352.9166643750002 723.8049404769544" stroke-miterlimit="10"/><path fill="#e69584" stroke="#e69584" paint-order="fill stroke markers" d=" M 352.9166666666667 742.8571428571429 A 4.583333333333371 4.583333333333371 0 1 1 352.9166643750002 742.8525595245734" stroke-miterlimit="10"/><path fill="#bdbdbd" stroke="#bdbdbd" paint-order="fill stroke markers" d=" M 352.9166666666667 761.9047619047619 A 4.583333333333371 4.583333333333371 0 1 1 352.9166643750002 761.9001785721924" stroke-miterlimit="10"/></g><g><path fill="none" stroke="none"/><g transform="translate(357.5,723.8095238095239) rotate(0,0,0)"><text fill="black" stroke="none" font-family="helvetica" font-size="8pt" font-style="normal" font-weight="normal" text-decoration="normal" x="0" y="0" text-anchor="start" dominant-baseline="central">FOstats</text></g><g transform="translate(357.5,742.8571428571429) rotate(0,0,0)"><text fill="black" stroke="none" font-family="helvetica" font-size="8pt" font-style="normal" font-weight="normal" text-decoration="normal" x="0" y="0" text-anchor="start" dominant-baseline="central">ShapeSize</text></g><g transform="translate(357.5,761.9047619047619) rotate(0,0,0)"><text fill="black" stroke="none" font-family="helvetica" font-size="8pt" font-style="normal" font-weight="normal" text-decoration="normal" x="0" y="0" text-anchor="start" dominant-baseline="central">texture</text></g></g><g><path fill="none" stroke="none"/><rect fill="#c64737" stroke="none" x="334.5833333333333" y="376.6666666666667" width="27.5" height="12.380952380952351"/><rect fill="black" stroke="none" x="334.5833333333333" y="393.8095238095238" width="27.5" height="12.380952380952408"/><path fill="none" stroke="#c64737" paint-order="fill stroke markers" d=" M 334.5833333333333 376.6666666666667 L 362.0833333333333 376.6666666666667 L 362.0833333333333 389.04761904761904 L 334.5833333333333 389.04761904761904 L 334.5833333333333 376.6666666666667 Z" stroke-miterlimit="10"/><path fill="none" stroke="black" paint-order="fill stroke markers" d=" M 334.5833333333333 393.8095238095238 L 362.0833333333333 393.8095238095238 L 362.0833333333333 406.1904761904762 L 334.5833333333333 406.1904761904762 L 334.5833333333333 393.8095238095238 Z" stroke-miterlimit="10"/><path fill="none" stroke="black" paint-order="fill stroke markers" d="" stroke-miterlimit="10"/></g><g><path fill="none" stroke="none"/><g transform="translate(371.25,382.85714285714283) rotate(0,0,0)"><text fill="black" stroke="none" font-family="helvetica" font-size="9pt" font-style="normal" font-weight="normal" text-decoration="normal" x="0" y="0" text-anchor="start" dominant-baseline="central">Primary</text></g><g transform="translate(371.25,400) rotate(0,0,0)"><text fill="black" stroke="none" font-family="helvetica" font-size="9pt" font-style="normal" font-weight="normal" text-decoration="normal" x="0" y="0" text-anchor="start" dominant-baseline="central">Recur_Lung</text></g></g></g></g><g clip-path="url(#TObQTHDIhFJQ)"><g/></g><g/></g></g></svg>